<svg width="611" height="611" viewBox="0 0 611 611" fill="none" xmlns="http://www.w3.org/2000/svg">
<rect width="611" height="611" rx="305.5" fill="white"/>
<path d="M457 211.972V487.141C457 494.246 454.177 501.061 449.152 506.086C444.128 511.111 437.313 513.933 430.207 513.933H182.595C179.076 513.935 175.591 513.242 172.34 511.896C169.089 510.55 166.135 508.577 163.646 506.089C161.158 503.601 159.185 500.646 157.839 497.395C156.493 494.144 155.801 490.659 155.802 487.141V124.86C155.801 121.341 156.493 117.856 157.839 114.605C159.185 111.354 161.158 108.4 163.646 105.912C166.135 103.423 169.089 101.45 172.34 100.104C175.591 98.7578 179.076 98.0656 182.595 98.0669H343.094L457 211.972Z" fill="black"/>
<path d="M236.295 332.326C241.826 332.326 246.31 327.483 246.31 321.509C246.31 315.536 241.826 310.693 236.295 310.693C230.764 310.693 226.28 315.536 226.28 321.509C226.28 327.483 230.764 332.326 236.295 332.326Z" fill="white"/>
<path d="M236.295 375.581C241.826 375.581 246.31 370.739 246.31 364.765C246.31 358.791 241.826 353.949 236.295 353.949C230.764 353.949 226.28 358.791 226.28 364.765C226.28 370.739 230.764 375.581 236.295 375.581Z" fill="white"/>
<path d="M236.295 418.837C241.826 418.837 246.31 413.995 246.31 408.021C246.31 402.047 241.826 397.205 236.295 397.205C230.764 397.205 226.28 402.047 226.28 408.021C226.28 413.995 230.764 418.837 236.295 418.837Z" fill="white"/>
<path d="M376.507 418.837H276.355C270.823 418.837 266.34 413.992 266.34 408.021C266.34 402.05 270.823 397.205 276.355 397.205H376.507C382.039 397.205 386.522 402.05 386.522 408.021C386.522 413.992 382.039 418.837 376.507 418.837Z" fill="white"/>
<path d="M376.507 375.629H276.355C270.823 375.629 266.34 370.783 266.34 364.812C266.34 358.842 270.823 353.996 276.355 353.996H376.507C382.039 353.996 386.522 358.842 386.522 364.812C386.522 370.783 382.039 375.629 376.507 375.629Z" fill="white"/>
<path d="M376.507 332.316H276.355C270.823 332.316 266.34 327.48 266.34 321.509C266.34 315.538 270.823 310.693 276.355 310.693H376.507C382.039 310.693 386.522 315.538 386.522 321.509C386.522 327.48 382.039 332.316 376.507 332.316Z" fill="white"/>
<path d="M358.632 209.493L457 250.021V211.973L401.23 195.51L358.632 209.493Z" fill="black"/>
<path d="M457 211.972H369.887C366.368 211.974 362.884 211.281 359.632 209.935C356.381 208.589 353.427 206.616 350.939 204.128C348.451 201.64 346.477 198.685 345.131 195.434C343.785 192.183 343.093 188.698 343.094 185.179V98.0669L457 211.972Z" fill="white"/>
</svg>
