<svg width="50" height="50" viewBox="0 0 50 50" fill="none" xmlns="http://www.w3.org/2000/svg">
<path fill-rule="evenodd" clip-rule="evenodd" d="M32.7258 18.815V18.81C33.1442 18.81 33.5633 18.8183 33.9825 18.8083C34.5208 18.7942 34.9592 18.3333 34.9592 17.7942C34.9592 16.9917 34.9592 16.1883 34.9592 15.3858C34.9592 14.81 34.5033 14.3525 33.9292 14.3517C33.1283 14.3517 32.3275 14.3508 31.5267 14.3517C30.9533 14.3525 30.4967 14.8117 30.4967 15.3875C30.4958 16.1833 30.4933 16.9792 30.4992 17.775C30.5 17.8942 30.5225 18.0175 30.56 18.13C30.7042 18.5533 31.0925 18.8133 31.5675 18.8158C31.9533 18.8158 32.34 18.815 32.7258 18.815ZM25 19.8475C22.18 19.8458 19.8875 22.115 19.8483 24.9217C19.8075 27.805 22.115 30.0892 24.8817 30.1483C27.76 30.21 30.0883 27.91 30.1492 25.1125C30.2117 22.2292 27.885 19.8458 25 19.8475ZM15.0383 22.5967V22.665C15.0383 26.4275 15.0375 30.19 15.0383 33.9525C15.0383 34.4933 15.5067 34.9592 16.0483 34.9592C22.015 34.96 27.9808 34.96 33.9475 34.9592C34.4942 34.9592 34.96 34.495 34.96 33.9492C34.9608 30.1917 34.96 26.4325 34.96 22.6758V22.5975H32.5333C32.8758 23.6917 32.9808 24.8067 32.8467 25.9425C32.7125 27.0783 32.3458 28.135 31.75 29.1117C31.1542 30.0883 30.38 30.8992 29.4342 31.5433C26.9808 33.215 23.75 33.3617 21.1458 31.9C19.83 31.1625 18.7967 30.1333 18.075 28.8058C17.0008 26.8283 16.8292 24.7517 17.4592 22.5967C16.6525 22.5967 15.8508 22.5967 15.0383 22.5967ZM35.1708 37.7125C35.3033 37.6908 35.4358 37.6717 35.5667 37.6433C36.605 37.4225 37.4533 36.5567 37.6567 35.5125C37.6775 35.3983 37.6942 35.285 37.7125 35.1717V14.8283C37.695 14.7175 37.6792 14.605 37.6583 14.4942C37.435 13.355 36.495 12.4708 35.3417 12.3125C35.2933 12.3067 35.2475 12.2958 35.2 12.2875H14.8008C14.6783 12.31 14.5542 12.3267 14.4333 12.3542C13.3067 12.6108 12.4733 13.5175 12.3125 14.6592C12.3058 14.7067 12.2958 14.7542 12.2883 14.8017V35.2C12.3117 35.3283 12.33 35.4592 12.3592 35.5875C12.6083 36.6892 13.5483 37.5433 14.6675 37.6875C14.7208 37.6942 14.7758 37.705 14.83 37.7125H35.1708ZM25 50C11.1933 50 0 38.8075 0 25C0 11.1925 11.1933 0 25 0C38.8067 0 50 11.1925 50 25C50 38.8075 38.8067 50 25 50Z" fill="#E7E7E7"/>
</svg>
