<svg width="51" height="50" viewBox="0 0 51 50" fill="none" xmlns="http://www.w3.org/2000/svg">
<path d="M44.5441 49.9128H7.20154C3.76603 49.9128 0.977783 47.1246 0.977783 43.6891V6.34656C0.977783 2.91105 3.76603 0.122803 7.20154 0.122803H44.5441C47.9796 0.122803 50.7678 2.91105 50.7678 6.34656V43.6891C50.7678 47.1246 47.9796 49.9128 44.5441 49.9128Z" fill="#0E0E0E"/>
<path d="M20.0886 37.4653C31.8313 37.4653 38.2568 27.8847 38.2568 19.5904C38.2568 19.3209 38.2568 19.0513 38.2444 18.7818C39.4896 17.8997 40.573 16.7848 41.4322 15.5229C40.2866 16.0252 39.0538 16.356 37.7587 16.5153C39.0787 15.7434 40.0873 14.506 40.573 13.0359C39.3402 13.7587 37.9704 14.2733 36.5135 14.5551C35.3429 13.3299 33.6867 12.5703 31.8562 12.5703C28.3322 12.5703 25.4681 15.3882 25.4681 18.8553C25.4681 19.3454 25.5304 19.8232 25.63 20.2887C20.3252 20.0315 15.6182 17.5199 12.4677 13.722C11.9198 14.6531 11.6085 15.7312 11.6085 16.8828C11.6085 19.0636 12.7417 20.9871 14.4476 22.1142C13.4016 22.0775 12.4179 21.7957 11.5587 21.3301V21.4159C11.5587 24.4543 13.7628 27.0026 16.6766 27.5784C16.1412 27.7254 15.5808 27.7989 14.9956 27.7989C14.5846 27.7989 14.1861 27.7622 13.8001 27.6886C14.6095 30.188 16.9755 32.0012 19.7649 32.0502C17.5732 33.7409 14.8212 34.7455 11.8326 34.7455C11.3221 34.7455 10.8115 34.721 10.3134 34.6597C13.1277 36.424 16.4899 37.4653 20.0886 37.4653Z" fill="white"/>
</svg>
