<svg width="51" height="50" viewBox="0 0 51 50" fill="none" xmlns="http://www.w3.org/2000/svg">
<path fill-rule="evenodd" clip-rule="evenodd" d="M50.0801 14.9913C50.0801 14.9913 49.5931 11.5359 48.101 10.0146C46.2074 8.01679 44.0851 8.00745 43.1126 7.89154C36.1451 7.38391 25.6939 7.38391 25.6939 7.38391H25.6721C25.6721 7.38391 15.2209 7.38391 8.25336 7.89154C7.27934 8.00745 5.1586 8.01679 3.26346 10.0146C1.77132 11.5363 1.28586 14.9913 1.28586 14.9913C1.28586 14.9913 0.787964 19.05 0.787964 23.1067V26.9113C0.787964 30.9696 1.28586 35.0267 1.28586 35.0267C1.28586 35.0267 1.77132 38.4821 3.26346 40.0034C5.1586 42.0012 7.64654 41.9386 8.75437 42.1471C12.7376 42.5326 25.683 42.6516 25.683 42.6516C25.683 42.6516 36.1451 42.636 43.1126 42.1284C44.0851 42.0109 46.2074 42.0016 48.101 40.0038C49.5931 38.4821 50.0801 35.0271 50.0801 35.0271C50.0801 35.0271 50.578 30.97 50.578 26.9113V23.1067C50.578 19.05 50.0801 14.9913 50.0801 14.9913ZM20.5422 31.5216L20.5406 17.4329L33.9933 24.5016L20.5422 31.5216Z" fill="#0E0E0E"/>
</svg>
