<svg width="51" height="50" viewBox="0 0 51 50" fill="none" xmlns="http://www.w3.org/2000/svg">
<path fill-rule="evenodd" clip-rule="evenodd" d="M50.0802 14.9912C50.0802 14.9912 49.5932 11.5358 48.1011 10.0145C46.2075 8.01667 44.0852 8.00733 43.1127 7.89141C36.1452 7.38379 25.694 7.38379 25.694 7.38379H25.6722C25.6722 7.38379 15.221 7.38379 8.25348 7.89141C7.27946 8.00733 5.15872 8.01667 3.26358 10.0145C1.77144 11.5362 1.28599 14.9912 1.28599 14.9912C1.28599 14.9912 0.788086 19.0498 0.788086 23.1066V26.9112C0.788086 30.9695 1.28599 35.0266 1.28599 35.0266C1.28599 35.0266 1.77144 38.4819 3.26358 40.0033C5.15872 42.0011 7.64666 41.9385 8.75449 42.147C12.7377 42.5324 25.6831 42.6515 25.6831 42.6515C25.6831 42.6515 36.1452 42.6359 43.1127 42.1283C44.0852 42.0108 46.2075 42.0015 48.1011 40.0037C49.5932 38.4819 50.0802 35.027 50.0802 35.027C50.0802 35.027 50.5781 30.9699 50.5781 26.9112V23.1066C50.5781 19.0498 50.0802 14.9912 50.0802 14.9912ZM20.5423 31.5215L20.5407 17.4328L33.9934 24.5014L20.5423 31.5215Z" fill="#E7E7E7"/>
</svg>
